<svg viewBox="-40 -20 80 40" xmlns="http://www.w3.org/2000/svg" xmlns:xlink="http://www.w3.org/1999/xlink">
	<defs>
		<clipPath id="interlace">
			<path d="M -11,-11 h 22 v 22 h -22 z M 11,-1.5 a 10.5,10.5 0 0,0 0,21 v -3 a 7.5,7.5 0 1,1 0,-15 M -11,1.5 a 7.5,7.5 0 1,1 0,15 v 3 a 10.5,10.5 0 0,0 0,-21 z" clip-rule="evenodd"/>
			<path d="M 0,0 l -12,12 h 12 z"/> 
		</clipPath>
		<g id="ring">
			<circle r="8"  clip-path="url(#interlace)"/>
			<path d="M 0,-9 a 9,9 0 0,1 9,9" transform="rotate(45)"/>
		</g>
	</defs>
	<g fill="none" stroke-width="2">
		<g stroke="#df0024" transform="translate(-22,0)">
			<use xlink:href="#ring"/>
			<path d="M 0,-9 a 9,9 0 0,0 0,18"/>
		</g>
		<use xlink:href="#ring" stroke="black"/>
		<g stroke="#3aafa9" transform="translate(22,0)">
			<use xlink:href="#ring"/>
			<path d="M 0,-9 a 9,9 0 0,1 0,18"/>
		</g>
		<use xlink:href="#ring" stroke="#f4c300" transform="translate(-11,9) rotate(180)"/>
		<use xlink:href="#ring" stroke="#009f3d" transform="translate(11,9) rotate(180)"/>
	</g>
</svg>